<svg xmlns="http://www.w3.org/2000/svg" xmlns:xlink="http://www.w3.org/1999/xlink" width="512" height="512" viewBox="0 0 512 512"><defs><style>.a{fill:#f6a140;}.b{clip-path:url(#a);}.c,.e,.f{fill:#fff;}.c{font-size:69px;font-family:Changa-SemiBold, Changa;font-weight:600;letter-spacing:0.025em;}.d{font-family:Changa-Medium, Changa;font-weight:500;}.e{fill-rule:evenodd;}</style><clipPath id="a"><rect class="a" width="512" height="512"/></clipPath></defs><g class="b"><rect class="a" width="512" height="512"/><g transform="translate(118.176 301.956)"><text class="c" transform="translate(-0.176 85.044)"><tspan x="0" y="0">متـجــــري</tspan><tspan y="0"></tspan><tspan class="d"><tspan x="0" y="83">MATJARY</tspan></tspan></text></g><g transform="translate(122 19.394)"><path class="e" d="M2778.2,344.779l3.27-1.282a4.527,4.527,0,0,1,3.154,7.718c-4.25,4.238-10.66-2.163-6.423-6.392Zm-94.17,0,3.28-1.282a4.493,4.493,0,0,1,3.146,1.282v.044c2.754,2.737.441,6.392,0,6.392C2686.215,355.448,2679.808,349.069,2684.031,344.779Zm121.019-60.986-136.842,0-38.448-89.94a9.927,9.927,0,0,0-9.395-6.686l-32.735,0c-13.079,0-13.068,19.8,0,19.8h26.2l37.054,86.682-15.759,35.991A9.955,9.955,0,0,0,2644.2,343.5h19.07c-1.475,7.856,1.221,16.611,6.764,21.724,10.47,9.653,25.02,9.43,34.442-.021a24.185,24.185,0,0,0,6.752-21.7h46.211c-1.488,7.833,1.226,16.611,6.761,21.724,10.469,9.649,25.008,9.43,34.448-.023a24.238,24.238,0,0,0,6.742-21.7h18.821c13.078,0,13.07-19.812,0-19.812H2659.343l8.789-20.091H2811.8a9.929,9.929,0,0,0,9.455-6.878l23.79-60.277c4.765-12.1-13.686-19.328-18.464-7.2Zm-129.9-107.061,61.583-49.777,61.583,49.777c10.084,8.167,22.558-7.172,12.5-15.322l-67.743-54.742a9.919,9.919,0,0,0-12.58-.08L2662.66,161.41C2652.591,169.568,2665.073,184.9,2675.148,176.732Z" transform="translate(-2577.824 -104.378)"/><g transform="translate(134.056 85.611)"><rect class="f" width="19.862" height="19.804" rx="5.963"/><rect class="f" width="19.864" height="19.802" rx="5.963" transform="translate(29.846)"/><rect class="f" width="19.864" height="19.801" rx="5.963" transform="translate(29.846 29.77)"/><rect class="f" width="19.862" height="19.802" rx="5.963" transform="translate(0 29.77)"/></g></g></g></svg>